<svg xmlns="http://www.w3.org/2000/svg" viewBox="0 0 162.4 162.4">
  <g id="Layer_2" data-name="Layer 2">
    <g id="Layer_1-2" data-name="Layer 1">
      <g>
        <path class="cls-1" d="M81.2,162.4a81.2,81.2,0,1,1,81.2-81.2A81.3,81.3,0,0,1,81.2,162.4Zm0-156.1a74.9,74.9,0,1,0,74.9,74.9A75,75,0,0,0,81.2,6.3Z"/>
        <path class="cls-1" d="M81.2,136.7A55.5,55.5,0,0,1,25.8,81.2a3.2,3.2,0,0,1,6.3,0,49.1,49.1,0,0,0,98.2,0,3.2,3.2,0,0,1,3.2-3.1,3.1,3.1,0,0,1,3.2,3.1A55.6,55.6,0,0,1,81.2,136.7Z"/>
        <g>
          <path class="cls-1" d="M51.3,38.3c-9,0-14.8,7.2-14.8,18.4S42.5,75,51.3,75s14.9-7.4,14.9-18.3S60.4,38.3,51.3,38.3Zm0,30.8c-5.4,0-8.6-4.6-8.6-12.4s3.2-12.5,8.6-12.5S60,48.9,60,56.7,56.7,69.1,51.3,69.1Z"/>
          <path class="cls-1" d="M111.1,38.3c-9.1,0-14.9,7.2-14.9,18.4s6,18.3,14.9,18.3,14.8-7.4,14.8-18.3S120.1,38.3,111.1,38.3Zm0,30.8c-5.4,0-8.7-4.6-8.7-12.4s3.3-12.5,8.7-12.5,8.6,4.7,8.6,12.5S116.5,69.1,111.1,69.1Z"/>
          <path class="cls-1" d="M77.8,99l5.8-3c3.9-1.8,6.6-3.5,8.2-5.3a9.9,9.9,0,0,0,2.5-6.8c0-5.9-5.4-10.3-12.5-10.3-4,0-7.3,1.1-9.7,3.3A12.4,12.4,0,0,0,68,86h0v.6h0a3.5,3.5,0,0,0,.8,1.6,3,3,0,0,0,2.2,1A2.9,2.9,0,0,0,74,87v-.5c.4-4.6,3.1-7.1,7.7-7.1s6.3,1.8,6.3,4.5-1.9,4.5-8.7,7.7-7.7,4.2-9.2,6.4a13.3,13.3,0,0,0-1.7,7.1v4.4H91.9a2.8,2.8,0,0,0,2.4-2.8,2.9,2.9,0,0,0-2.4-2.9H75.3a4.1,4.1,0,0,1,.6-2.7A4.9,4.9,0,0,1,77.8,99Z"/>
        </g>
      </g>
    </g>
  </g>
</svg>
