<svg xmlns="http://www.w3.org/2000/svg" viewBox="0 0 148.9 137.2">
  <defs>
    <style>
      .cls-1 {
        fill: #e6e7e8;
      }
    </style>
  </defs>
  <g id="Layer_2" data-name="Layer 2">
    <g id="Layer_1-2" data-name="Layer 1">
      <g>
        <path class="cls-1" d="M101.5,38l-2.3-2.3a9.1,9.1,0,0,0-6.7-2.8h0a9.5,9.5,0,0,0-6.7,2.8l-83,83.1a9.4,9.4,0,0,0,0,13.4L5,134.4a9.4,9.4,0,0,0,6.7,2.8,9.2,9.2,0,0,0,6.7-2.8l83.1-83a9.5,9.5,0,0,0,2.8-6.7A9.3,9.3,0,0,0,101.5,38ZM13.9,130a3.1,3.1,0,0,1-4.4,0l-2.3-2.3a3.1,3.1,0,0,1-.9-2.2,2.9,2.9,0,0,1,.9-2.2L75.6,54.9l6.7,6.7ZM97,46.9,86.8,57.1l-6.7-6.7L90.3,40.2a3.1,3.1,0,0,1,2.2-.9h0a3.2,3.2,0,0,1,2.3.9L97,42.4a3.2,3.2,0,0,1,.9,2.3A3.1,3.1,0,0,1,97,46.9Z"/>
        <polygon class="cls-1" points="135 13.9 131.8 0 128.6 13.9 114.8 17.1 128.6 20.3 131.8 34.2 135 20.3 148.9 17.1 135 13.9"/>
        <polygon class="cls-1" points="49.4 34.2 52.6 20.3 66.5 17.1 52.6 13.9 49.4 0 46.3 13.9 32.4 17.1 46.3 20.3 49.4 34.2"/>
        <polygon class="cls-1" points="117.4 69.5 114.9 80.4 104 82.8 114.9 85.3 117.4 96.2 119.9 85.3 130.8 82.8 119.9 80.4 117.4 69.5"/>
      </g>
    </g>
  </g>
</svg>
