<svg xmlns="http://www.w3.org/2000/svg" viewBox="0 0 184.3 169.8">
  <g id="Layer_2" data-name="Layer 2">
    <g id="Layer_1-2" data-name="Layer 1">
      <g>
        <path class="cls-1" d="M113.4,18.1l40.1,64.1,5.4-3.4L118.8,14.7a31.5,31.5,0,0,0-53.3,0L57.8,27.1,56,19.6,49.9,21,55,43.5,70.9,18.1a25,25,0,0,1,42.5,0Z"/>
        <path class="cls-1" d="M179.4,111.6l-6.6-10.5,7.6,1.8,1.4-6.2-22.5-5.3,14.8,23.5a25.1,25.1,0,0,1,.7,25.5,24.8,24.8,0,0,1-22,12.9H75.2v6.3h77.6a31.3,31.3,0,0,0,26.6-48Z"/>
        <path class="cls-1" d="M9.5,140.4a24.8,24.8,0,0,1,.7-25.5l39-62.1-5.4-3.4L4.9,111.6A30.8,30.8,0,0,0,4,143.4a30.9,30.9,0,0,0,27.5,16.2H49.2l-5.5,5.8,4.5,4.4,15.9-16.5H31.5A24.8,24.8,0,0,1,9.5,140.4Z"/>
        <path class="cls-1" d="M94,74.5c5.9,0,9.5,3.7,10.7,10.6l6.4-1.1c-1.1-9.3-8-15.5-17.1-15.5-11.3,0-18.8,9.2-18.8,23s7.4,23.1,18.8,23.1a16.6,16.6,0,0,0,11.9-4.4c3.1-3,4.9-7.1,5.3-12.2l-6.5-1c-.8,7.6-4.5,11.5-10.7,11.5s-12.3-6.4-12.3-17S86.3,74.5,94,74.5Z"/>
      </g>
    </g>
  </g>
</svg>
