<svg xmlns="http://www.w3.org/2000/svg" viewBox="0 0 161.1 126.7">
  <g id="Layer_2" data-name="Layer 2">
    <g id="Layer_1-2" data-name="Layer 1">
      <g>
        <path class="cls-1" d="M131.9,126.7H29.2A29.2,29.2,0,0,1,0,97.5V29.2A29.2,29.2,0,0,1,29.2,0H131.9a29.2,29.2,0,0,1,29.2,29.2V97.5A29.2,29.2,0,0,1,131.9,126.7ZM29.2,6A23.2,23.2,0,0,0,6,29.2V97.5a23.2,23.2,0,0,0,23.2,23.2H131.9a23.2,23.2,0,0,0,23.2-23.2V29.2A23.2,23.2,0,0,0,131.9,6Z"/>
        <g>
          <path class="cls-1" d="M33.1,13.7H38v9.1h7.6V13.7h4.9V36.9H45.6V27.3H38v9.6H33.1Z"/>
          <path class="cls-1" d="M55.1,13.7H70v4.5H60v4.7h9.1v4.3H60v5.2H70v4.5H55.1Z"/>
          <path class="cls-1" d="M73.6,13.7h4.9V32.4h9.8v4.5H73.6Z"/>
          <path class="cls-1" d="M91.4,13.7h4.9V32.4h9.8v4.5H91.4Z"/>
          <path class="cls-1" d="M117.5,13.2c6.1,0,10.2,4.8,10.2,12.1s-4.1,12.1-10.2,12.1-10.3-4.8-10.3-12.1S111.3,13.2,117.5,13.2Zm0,4.5c-3.3,0-5.4,2.9-5.4,7.6s2.1,7.6,5.4,7.6,5.3-2.8,5.3-7.6S120.8,17.7,117.5,17.7Z"/>
        </g>
        <rect class="cls-1" x="3" y="44.7" width="155.1" height="5.99"/>
        <rect class="cls-1" x="3" y="93.5" width="155.1" height="5.99"/>
      </g>
    </g>
  </g>
</svg>
