<svg xmlns="http://www.w3.org/2000/svg" viewBox="0 0 56.1 64.7">
  <defs>
    <style>
      .cls-1 {
        fill: #d2d3d4;
      }
    </style>
  </defs>
  <g id="Layer_2" data-name="Layer 2">
    <g id="Layer_1-2" data-name="Layer 1">
      <path class="cls-1" d="M29.2,30.2H56.1V63.1H50.7l-1.9-8c-4.2,5.8-11.9,9.6-20.3,9.6-10.5,0-15.7-3.9-18.8-6.9C.3,48.9,0,38.3,0,31.8,0,16.9,9.1,0,29.1,0c11.5,0,24.2,6.5,26,20.3h-8C44.4,9.6,35.4,7.4,28.7,7.4,17.6,7.4,8.6,16.2,8.6,32.3c0,12.4,4.1,25.3,20.4,25.3a19.7,19.7,0,0,0,12.6-4c5.4-4.2,6.7-9.7,6.7-16.3H29.2Z"/>
    </g>
  </g>
</svg>
