<svg xmlns="http://www.w3.org/2000/svg" viewBox="0 0 113.6 156.9">
  <g id="Layer_2" data-name="Layer 2">
    <g id="Layer_1-2" data-name="Layer 1">
      <g>
        <path class="cls-1" d="M107.1,156.9H6.5A6.5,6.5,0,0,1,0,150.4V65.8A11.9,11.9,0,0,1,7.5,54.7l32-8.2a21.2,21.2,0,0,1-6-14.7V23.3A23.4,23.4,0,0,1,59.9.2C71.4,1.7,80.1,12,80.1,24.1v7.7a21.2,21.2,0,0,1-6,14.7l31.8,8.1a12,12,0,0,1,7.7,11.2v84.6A6.5,6.5,0,0,1,107.1,156.9ZM56.8,5.9a17.7,17.7,0,0,0-11.5,4.3,17.3,17.3,0,0,0-5.9,13.1v8.5a15.1,15.1,0,0,0,7.7,13.3,2.9,2.9,0,0,1-.6,5.3l-37,9.8a6.1,6.1,0,0,0-3.6,5.6v84.6a.6.6,0,0,0,.6.6H107.1a.6.6,0,0,0,.6-.6V65.8a6.2,6.2,0,0,0-3.8-5.7L67.1,50.4a2.9,2.9,0,0,1-2-2.5,2.8,2.8,0,0,1,1.4-2.8,15.1,15.1,0,0,0,7.7-13.3V24.1c0-9.2-6.4-16.9-15-18.1Z"/>
        <path class="cls-1" d="M61.2,140H52.4A26.5,26.5,0,0,1,26,113.5V90A26.4,26.4,0,0,1,52.4,63.6h8.8A26.4,26.4,0,0,1,87.6,90v23.5A26.5,26.5,0,0,1,61.2,140ZM52.4,66.6A23.5,23.5,0,0,0,28.9,90v23.5A23.5,23.5,0,0,0,52.4,137h8.8a23.5,23.5,0,0,0,23.5-23.5V90A23.5,23.5,0,0,0,61.2,66.6Z"/>
        <path class="cls-1" d="M61.2,140H52.4A26.5,26.5,0,0,1,26,113.5V90A26.4,26.4,0,0,1,52.4,63.6h8.8A26.4,26.4,0,0,1,87.6,90v23.5A26.5,26.5,0,0,1,61.2,140ZM52.4,66.6A23.5,23.5,0,0,0,28.9,90v23.5A23.5,23.5,0,0,0,52.4,137h8.8a23.5,23.5,0,0,0,23.5-23.5V90A23.5,23.5,0,0,0,61.2,66.6Z"/>
        <path class="cls-1" d="M61.2,131.6H52.4a18.1,18.1,0,0,1-18.1-18.1V90A18.2,18.2,0,0,1,52.4,71.9h8.8A18.2,18.2,0,0,1,79.3,90v23.5A18.1,18.1,0,0,1,61.2,131.6ZM52.4,74.9A15.2,15.2,0,0,0,37.2,90v23.5a15.2,15.2,0,0,0,15.2,15.2h8.8a15.2,15.2,0,0,0,15.2-15.2V90A15.2,15.2,0,0,0,61.2,74.9Z"/>
        <path class="cls-1" d="M61.2,123.3H52.4a9.8,9.8,0,0,1-9.8-9.8V90a9.7,9.7,0,0,1,9.8-9.7h8.8A9.7,9.7,0,0,1,71,90v23.5A9.8,9.8,0,0,1,61.2,123.3ZM52.4,83.2A6.8,6.8,0,0,0,45.6,90v23.5a6.8,6.8,0,0,0,6.8,6.9h8.8a6.8,6.8,0,0,0,6.8-6.9V90a6.8,6.8,0,0,0-6.8-6.8Z"/>
        <path class="cls-1" d="M56.8,115a5.9,5.9,0,0,1-4.2-1.7,6.1,6.1,0,0,1-1.7-4.2V94.4a5.9,5.9,0,0,1,1.8-4.1,6.3,6.3,0,0,1,4.1-1.7,5.8,5.8,0,0,1,5.9,5.9v14.6A6,6,0,0,1,56.8,115Zm-2.9-5.9a2.7,2.7,0,0,0,2.9,2.9,2.9,2.9,0,0,0,2.9-2.9V94.5a2.9,2.9,0,0,0-2.9-3h0a2.9,2.9,0,0,0-2.1.9,3,3,0,0,0-.8,2Z"/>
      </g>
    </g>
  </g>
</svg>
