<svg xmlns="http://www.w3.org/2000/svg" viewBox="0 0 21.5 21.5">
  <defs>
    <style>
      .cls-1 {
        fill: #e6e7e8;
      }
    </style>
  </defs>
  <g id="Layer_2" data-name="Layer 2">
    <g id="Layer_1-2" data-name="Layer 1">
      <g>
        <path class="cls-1" d="M10.7,1.9h4.4a4.3,4.3,0,0,1,2,.4,3.2,3.2,0,0,1,1.2.8,2.5,2.5,0,0,1,.8,1.2,6.2,6.2,0,0,1,.4,2v8.7a6.2,6.2,0,0,1-.4,2,3.7,3.7,0,0,1-2,2,6.2,6.2,0,0,1-2,.4H6.4a6.2,6.2,0,0,1-2-.4,2.5,2.5,0,0,1-1.2-.8,3.2,3.2,0,0,1-.8-1.2,4.3,4.3,0,0,1-.4-2,41.6,41.6,0,0,1-.1-4.4A40.4,40.4,0,0,1,2,6.4a4.3,4.3,0,0,1,.4-2,2.5,2.5,0,0,1,.8-1.2,2.5,2.5,0,0,1,1.2-.8,4.3,4.3,0,0,1,2-.4h4.3m0-1.9H6.3A6.3,6.3,0,0,0,3.7.6,4.4,4.4,0,0,0,1.8,1.8,4.4,4.4,0,0,0,.6,3.7,6.3,6.3,0,0,0,.1,6.3,42.7,42.7,0,0,0,0,10.7a44,44,0,0,0,.1,4.5,6.3,6.3,0,0,0,.5,2.6,4.4,4.4,0,0,0,1.2,1.9,5.5,5.5,0,0,0,1.9,1.2,6.3,6.3,0,0,0,2.6.5h8.9a6.3,6.3,0,0,0,2.6-.5,5.1,5.1,0,0,0,3.1-3.1,6.3,6.3,0,0,0,.5-2.6,44,44,0,0,0,.1-4.5,42.7,42.7,0,0,0-.1-4.4,6.3,6.3,0,0,0-.5-2.6,5.5,5.5,0,0,0-1.2-1.9A4.4,4.4,0,0,0,17.8.6,6.3,6.3,0,0,0,15.2.1H10.7"/>
        <path class="cls-1" d="M10.7,5.2a5.6,5.6,0,1,0,5.6,5.5,5.5,5.5,0,0,0-5.6-5.5m0,9.1a3.6,3.6,0,1,1,3.6-3.6,3.6,3.6,0,0,1-3.6,3.6"/>
        <path class="cls-1" d="M17.8,5a1.3,1.3,0,1,1-1.3-1.3A1.3,1.3,0,0,1,17.8,5"/>
      </g>
    </g>
  </g>
</svg>
