<svg xmlns="http://www.w3.org/2000/svg" viewBox="0 0 1993.1 826.5">
  <defs>
    <style>
      .cls-1 {
        fill: #d1d3d4;
      }
    </style>
  </defs>
  <g id="Layer_2" data-name="Layer 2">
    <g id="Layer_1-2" data-name="Layer 1">
      <g>
        <path class="cls-1" d="M1381.5,210.1c0-50.2,24.1-73.8,74.8-73.8H1600c27.1,0,46.2,7,59.8,22.6,11,12.6,15,25.6,15,50.2V397c0,51.7-24.6,74.3-80.8,74.3H1465.4c-32.7,0-49.7-5-64.8-19-13.6-12.6-19.1-29.2-19.1-55.3Zm130.6,159.8c0,19.1,4,25.6,16.1,25.6s16-6.5,16-25.6V238.3c0-19.1-4-25.6-16-25.6s-16.1,6.5-16.1,25.6Z"/>
        <g>
          <path class="cls-1" d="M520,136.3H651.1V395H732v76.3H520Z"/>
          <path class="cls-1" d="M748.6,210.1c0-50.2,24.1-73.8,74.8-73.8H967.1c27.1,0,46.2,7,59.8,22.6,11,12.6,15,25.6,15,50.2V397c0,51.7-24.6,74.3-80.9,74.3H832.5c-32.7,0-49.8-5-64.8-19s-19.1-29.2-19.1-55.3ZM879.2,369.9c0,19.1,4,25.6,16,25.6s16.1-6.5,16.1-25.6V238.3c0-19.1-4-25.6-16.1-25.6s-16,6.5-16,25.6Z"/>
          <path class="cls-1" d="M1294.6,471.3,1283,444.7c-15.5,21.1-28.6,26.6-64.3,26.6h-79.8c-25.6,0-44.7-7-58.3-21.6s-16.1-26.1-16.1-59.7V207.1c0-48.2,25.1-70.8,78.9-70.8h121.1c44.7,0,60.2,3.5,75.3,18.1,12.6,11.5,19.1,30.1,19.1,54.2v35.7H1227.3a46.2,46.2,0,0,0,.5-7.5c0-15.1-6.5-24.1-17.1-24.1s-15.6,8-15.6,26.6V371.4c0,16.6,4.6,23.6,15.6,23.6s16.6-7.5,16.6-21.6V354.8h-20.1V278h151.7V471.3Z"/>
          <path class="cls-1" d="M574.6,320C1141.8,78,1697.6,40.9,1816,237.1c54.7,90.7,6.3,215.4-117.7,347.3,209.5-170.9,308.2-342.5,238.2-458.5-118.4-196.2-674.2-159-1241.4,83-304.9,130-551,292.8-695.1,446C144.9,536.7,342.7,418.9,574.6,320Z"/>
          <path class="cls-1" d="M197.8,491.4H366.5l14.6,66.3c6,26.2,9.1,52.8,11.1,94h9c-.5-29.2,3.5-65.3,9.6-91l17-69.3H596.1V826.5H478.6v-96c0-20.6,1.5-39.7,6-70.8h-8.5c-4.1,29.6-6.6,40.2-15.1,70.3l-26.6,96.5H359L330.9,726c-10.1-42.7-12.6-54.7-13.6-66.3h-8.5c5,40.2,6,52.2,6,78.4v88.4h-117Z"/>
          <path class="cls-1" d="M622.2,565.3c0-50.3,24.1-73.9,74.9-73.9H840.7c27.2,0,46.3,7.1,59.8,22.6,11.1,12.6,15.1,25.6,15.1,50.3V752.1c0,51.8-24.6,74.4-80.9,74.4H706.1c-32.6,0-49.7-5.1-64.8-19.1-13.5-12.6-19.1-29.2-19.1-55.3ZM752.8,725c0,19.1,4.1,25.6,16.1,25.6S785,744.1,785,725V593.4c0-19.1-4-25.6-16.1-25.6s-16.1,6.5-16.1,25.6Z"/>
          <path class="cls-1" d="M998.5,568.3H932.2V491.4h262.7v76.9h-65.8V826.5H998.5Z"/>
          <path class="cls-1" d="M1218,491.4h130.6V826.5H1218Z"/>
          <path class="cls-1" d="M1378.2,565.3c0-50.3,24.1-73.9,74.9-73.9h143.6c27.2,0,46.2,7.1,59.8,22.6,11.1,12.6,15.1,25.6,15.1,50.3V752.1c0,51.8-24.6,74.4-80.9,74.4H1462.1c-32.6,0-49.7-5.1-64.8-19.1-13.5-12.6-19.1-29.2-19.1-55.3ZM1508.8,725c0,19.1,4,25.6,16.1,25.6s16.1-6.5,16.1-25.6V593.4c0-19.1-4-25.6-16.1-25.6s-16.1,6.5-16.1,25.6Z"/>
          <path class="cls-1" d="M1697.2,491.4h122.1l31.1,77.9c12.6,30.6,19.1,53.2,22.6,78.3h7a477.5,477.5,0,0,1-9-94.4V491.4h122.1V826.5H1871l-30.1-77.4c-15.1-37.2-19.6-53.7-23.6-82.9h-7.1c5,29.7,9.1,72.9,9.1,97.5v62.8H1697.2Z"/>
        </g>
      </g>
    </g>
  </g>
</svg>
