<svg xmlns="http://www.w3.org/2000/svg" viewBox="0 0 75.2 74.2">
  <defs>
    <style>
      .cls-1 {
        fill: #d2d3d4;
      }
    </style>
  </defs>
  <g id="Layer_2" data-name="Layer 2">
    <g id="Layer_1-2" data-name="Layer 1">
      <path class="cls-1" d="M0,37C0,15.7,17.3,0,37.7,0S75.2,15.7,75.2,37,57.9,74.2,37.7,74.2,0,58.5,0,37ZM37.7,68c16.8,0,30-13.1,30-31S54.5,6.2,37.7,6.2,7.5,19.4,7.5,37,20.7,68,37.7,68Zm-7.9-9.5H23.4V15.7H39.6c10.2,0,15.2,3.7,15.2,12.2s-4.9,11-11.1,11.7L55.8,58.5H48.6L37.3,39.9H29.8Zm7.8-24.1c5.5,0,10.4-.4,10.4-6.9s-4.8-6.3-9.3-6.3H29.8V34.4Z"/>
    </g>
  </g>
</svg>
