<svg xmlns="http://www.w3.org/2000/svg" viewBox="0 0 187.4 74.2">
  <defs>
    <style>
      .cls-1 {
        fill: #d2d3d4;
      }
    </style>
  </defs>
  <g id="Layer_2" data-name="Layer 2">
    <g id="Layer_1-2" data-name="Layer 1">
      <g>
        <path class="cls-1" d="M0,6.5H49.9v7.3H29.1V67.9H20.8V13.8H0Z"/>
        <path class="cls-1" d="M55.5,6.5H80.4c16,0,25.8,12.1,25.8,29.8,0,13.8-6,31.6-26.2,31.6H55.5Zm8.3,54.3H79.9c10.7,0,17.8-8.5,17.8-24S90.5,13.6,79.3,13.6H63.8Z"/>
        <path class="cls-1" d="M112.2,37c0-21.3,17.3-37,37.7-37s37.5,15.7,37.5,37-17.3,37.2-37.5,37.2S112.2,58.5,112.2,37Zm37.7,31c16.8,0,30-13.1,30-31s-13.2-30.8-30-30.8S119.7,19.4,119.7,37,132.9,68,149.9,68ZM142,58.5h-6.4V15.7h16.3c10.1,0,15.1,3.7,15.1,12.2s-4.8,11-11.1,11.7L168,58.5h-7.2L149.5,39.9H142Zm7.8-24.1c5.5,0,10.4-.4,10.4-6.9s-4.8-6.3-9.3-6.3H142V34.4Z"/>
      </g>
    </g>
  </g>
</svg>
