<svg xmlns="http://www.w3.org/2000/svg" viewBox="0 0 152.4 152.4">
  <g id="Layer_2" data-name="Layer 2">
    <g id="Layer_1-2" data-name="Layer 1">
      <g>
        <path class="cls-1" d="M143.1,129.5V21.1A10.7,10.7,0,1,0,130.4,8.4H21.1A10.7,10.7,0,1,0,8.4,21.1V130.4a10.7,10.7,0,1,0,12.7,12.7H129.5a11.5,11.5,0,0,0,11.3,9.3,11.6,11.6,0,0,0,11.6-11.6A11.5,11.5,0,0,0,143.1,129.5ZM140.8,4.4a6.3,6.3,0,1,1-6.2,6.3A6.3,6.3,0,0,1,140.8,4.4ZM4.4,10.7a6.3,6.3,0,1,1,6.3,6.2A6.3,6.3,0,0,1,4.4,10.7Zm6.3,136.4a6.3,6.3,0,1,1,6.2-6.3A6.3,6.3,0,0,1,10.7,147.1Zm2.2-16.7V21.1a10.8,10.8,0,0,0,8.2-8.2H130.4a10.8,10.8,0,0,0,8.2,8.2V129.5a11.5,11.5,0,0,0-9.1,9.1H21.1A10.8,10.8,0,0,0,12.9,130.4Zm127.9,15.7a5.3,5.3,0,0,1,0-10.5,5.3,5.3,0,1,1,0,10.5Z"/>
        <g>
          <path class="cls-1" d="M72.8,115.3H66.4V65.5A22.1,22.1,0,0,0,44.3,43.4H28V37.1H44.3A28.5,28.5,0,0,1,72.8,65.5Z"/>
          <path class="cls-1" d="M85.1,115.3H78.7V65.5a28.5,28.5,0,0,1,28.5-28.4h16.3v6.3H107.2A22.1,22.1,0,0,0,85.1,65.5Z"/>
          <path class="cls-1" d="M97.4,115.3H91V65.5a17.3,17.3,0,0,1,17.3-17.2h15.2v6.3H108.3A10.9,10.9,0,0,0,97.4,65.5Z"/>
          <path class="cls-1" d="M60.5,115.3H54.1V65.5A10.9,10.9,0,0,0,43.2,54.6H28V48.3H43.2A17.3,17.3,0,0,1,60.5,65.5Z"/>
        </g>
      </g>
    </g>
  </g>
</svg>
